<!DOCTYPE svg PUBLIC "-//W3C//DTD SVG 1.1//EN" "http://www.w3.org/Graphics/SVG/1.1/DTD/svg11.dtd">
<!-- Uploaded to: SVG Repo, www.svgrepo.com, Transformed by: SVG Repo Mixer Tools -->
<svg fill="#ffffff" height="800px" width="800px" version="1.1" id="Capa_1" xmlns="http://www.w3.org/2000/svg" xmlns:xlink="http://www.w3.org/1999/xlink" viewBox="0 0 73.014 73.014" xml:space="preserve" stroke="#ffffff">
<g id="SVGRepo_bgCarrier" stroke-width="0"/>
<g id="SVGRepo_tracerCarrier" stroke-linecap="round" stroke-linejoin="round"/>
<g id="SVGRepo_iconCarrier"> <path d="M20.631,20.203v-4.909c0-0.528,0.277-1.017,0.73-1.288c0.453-0.27,1.016-0.282,1.479-0.034l4.565,2.455 c0.486,0.262,0.79,0.769,0.79,1.321c0,0.552-0.304,1.059-0.79,1.321l-4.565,2.455c-0.222,0.119-0.466,0.179-0.71,0.179 c-0.267,0-0.533-0.071-0.77-0.212C20.908,21.219,20.631,20.731,20.631,20.203z M73.014,61.784c0,0.829-0.672,1.5-1.5,1.5h-6.132 H47.707h-22.4H7.632H1.5c-0.828,0-1.5-0.671-1.5-1.5c0-0.829,0.672-1.5,1.5-1.5h4.632V42.219c0-9.518,4.512-14.66,10.848-17.398 V14.373c0-0.829,0.672-1.5,1.5-1.5s1.5,0.671,1.5,1.5v9.365c3.4-1.022,7.148-1.525,10.92-1.744V11.23c0-0.829,0.672-1.5,1.5-1.5 c0.828,0,1.5,0.671,1.5,1.5v10.644c0.874-0.02,1.745-0.029,2.608-0.029c2.737,0,5.551,0.089,8.311,0.36v-7.831 c0-0.829,0.672-1.5,1.5-1.5c0.828,0,1.5,0.671,1.5,1.5v8.208c10.275,1.591,19.063,6.351,19.063,19.637v18.065h4.632 C72.342,60.284,73.014,60.955,73.014,61.784z M15.207,51.698c0-0.575-0.466-1.042-1.042-1.042l-4.292,0 c-0.575,0-1.042,0.466-1.042,1.042v4.636c0,0.575,0.466,1.042,1.042,1.042h4.292c0.575,0,1.042-0.466,1.042-1.042V51.698z M15.207,42.396c0-0.575-0.466-1.042-1.042-1.042H9.874c-0.575,0-1.042,0.466-1.042,1.042v4.635c0,0.575,0.466,1.042,1.042,1.042 l4.292,0c0.575,0,1.042-0.466,1.042-1.042V42.396z M24.165,51.698c0-0.575-0.466-1.042-1.042-1.042h-4.292 c-0.575,0-1.042,0.466-1.042,1.042v4.635c0,0.575,0.466,1.042,1.042,1.042h4.292c0.575,0,1.042-0.466,1.042-1.042V51.698z M24.165,42.396c0-0.575-0.466-1.042-1.042-1.042h-4.292c-0.575,0-1.042,0.466-1.042,1.042v4.635c0,0.575,0.466,1.042,1.042,1.042 h4.292c0.575,0,1.042-0.466,1.042-1.042V42.396z M46.207,37.981c0-5.342-3.173-7.939-9.7-7.939c-6.527,0-9.7,2.597-9.7,7.939v22.303 h19.4V37.981z M55.207,51.698c0-0.575-0.466-1.042-1.042-1.042l-4.292,0c-0.575,0-1.042,0.466-1.042,1.042v4.636 c0,0.575,0.466,1.042,1.042,1.042h4.292c0.575,0,1.042-0.466,1.042-1.042V51.698z M55.207,42.396c0-0.575-0.466-1.042-1.042-1.042 h-4.292c-0.575,0-1.042,0.466-1.042,1.042v4.635c0,0.575,0.466,1.042,1.042,1.042l4.292,0c0.575,0,1.042-0.466,1.042-1.042V42.396z M64.165,51.698c0-0.575-0.466-1.042-1.042-1.042h-4.292c-0.575,0-1.042,0.466-1.042,1.042v4.635c0,0.575,0.466,1.042,1.042,1.042 h4.292c0.575,0,1.042-0.466,1.042-1.042V51.698z M64.165,42.396c0-0.575-0.466-1.042-1.042-1.042h-4.292 c-0.575,0-1.042,0.466-1.042,1.042v4.635c0,0.575,0.466,1.042,1.042,1.042h4.292c0.575,0,1.042-0.466,1.042-1.042V42.396z M35.281,18.347c0.236,0.142,0.503,0.212,0.77,0.212c0.244,0,0.488-0.06,0.71-0.179l4.564-2.455c0.486-0.262,0.79-0.769,0.79-1.321 c0-0.552-0.304-1.06-0.79-1.321l-4.564-2.455c-0.464-0.249-1.025-0.236-1.479,0.034c-0.453,0.271-0.73,0.76-0.73,1.288v4.909 C34.551,17.587,34.828,18.076,35.281,18.347z M49.2,21.49c0.236,0.141,0.503,0.212,0.77,0.212c0.244,0,0.488-0.06,0.71-0.179 l4.564-2.455c0.486-0.262,0.79-0.769,0.79-1.321c0-0.552-0.304-1.06-0.789-1.321l-4.563-2.455c-0.465-0.25-1.027-0.237-1.481,0.033 s-0.73,0.759-0.73,1.287l-0.001,4.909C48.47,20.73,48.747,21.219,49.2,21.49z"/> </g>
</svg>